<?xml version="1.0" standalone="no"?>
<!DOCTYPE svg PUBLIC "-//W3C//DTD SVG 20010904//EN"
 "http://www.w3.org/TR/2001/REC-SVG-20010904/DTD/svg10.dtd">
<svg version="1.0" xmlns="http://www.w3.org/2000/svg"
 width="500.000000pt" height="500.000000pt" viewBox="0 0 500.000000 500.000000"
 preserveAspectRatio="xMidYMid meet">
<metadata>
Created by potrace 1.11, written by Peter Selinger 2001-2013
</metadata>
<g transform="translate(0.000000,500.000000) scale(0.100000,-0.100000)"
fill="#000000" stroke="none">
<path d="M2616 4815 c-46 -16 -98 -63 -138 -125 -38 -60 -105 -269 -168 -531
-29 -118 -57 -234 -64 -258 l-11 -44 -125 144 c-290 334 -402 419 -551 419
-63 0 -110 -22 -166 -75 -33 -32 -43 -49 -43 -73 0 -18 3 -32 6 -32 4 0 27 15
53 33 73 53 101 61 146 43 61 -26 174 -150 278 -307 98 -148 257 -424 257
-446 0 -29 -45 -144 -93 -235 -107 -208 -284 -379 -527 -511 -28 -15 -56 -39
-62 -53 -11 -23 -10 -29 11 -45 92 -75 256 -33 456 118 183 138 352 323 458
500 170 283 289 691 381 1310 14 95 26 175 26 178 0 10 -86 4 -124 -10z"/>
<path d="M2900 4093 c-35 -95 -13 -151 54 -139 50 9 76 47 76 107 0 60 -24 89
-74 89 -33 0 -36 -3 -56 -57z"/>
<path d="M2854 3874 c-3 -16 -18 -74 -32 -129 -15 -60 -25 -131 -26 -177 -1
-69 2 -80 29 -119 81 -115 165 -111 287 14 59 60 128 156 128 178 0 36 -19 28
-61 -29 -119 -159 -180 -211 -234 -198 l-28 7 6 72 c3 42 20 119 41 183 39
122 41 132 25 167 -14 30 -39 45 -88 53 -38 6 -40 5 -47 -22z"/>
<path d="M2100 2433 c-19 -8 -36 -16 -37 -16 -13 -13 -93 -1055 -93 -1222 0
-154 26 -205 103 -205 68 0 82 27 131 245 46 204 81 279 175 379 65 69 171
150 181 139 4 -4 12 -92 18 -194 15 -232 25 -287 68 -369 67 -129 133 -180
230 -180 65 0 127 39 182 112 81 109 76 128 -21 74 -71 -40 -111 -46 -126 -17
-6 10 -17 90 -25 177 -21 209 -37 282 -85 380 -51 102 -108 157 -177 172 -118
25 -230 -46 -349 -223 l-47 -70 6 66 c12 131 24 596 17 668 -5 55 -12 77 -26
87 -24 18 -80 17 -125 -3z"/>
<path d="M3911 2312 c-37 -70 -100 -737 -81 -858 13 -78 22 -98 54 -119 17
-11 35 -14 64 -9 37 6 42 11 60 53 11 25 28 80 37 121 64 278 94 349 187 447
60 63 177 158 185 150 2 -2 10 -98 19 -213 19 -264 39 -337 118 -439 45 -59
65 -73 123 -90 61 -19 106 -10 164 29 44 30 129 140 129 167 0 21 -5 20 -87
-24 -58 -30 -95 -34 -112 -13 -7 8 -19 86 -27 173 -8 87 -19 178 -25 203 -6
25 -13 57 -15 72 -5 37 -76 177 -110 218 -57 67 -166 89 -252 50 -59 -27 -145
-111 -203 -199 l-49 -75 0 129 c0 149 -10 196 -47 225 -35 27 -118 28 -132 2z"/>
<path d="M1245 2287 c-163 -61 -340 -163 -379 -219 -8 -11 -35 -42 -59 -67
-76 -80 -158 -236 -218 -418 -30 -89 -33 -110 -33 -218 -1 -180 42 -311 148
-452 169 -225 519 -227 848 -5 99 67 166 142 220 249 48 93 102 237 95 256 -2
6 -67 -52 -145 -130 -158 -158 -231 -213 -342 -257 -66 -26 -88 -30 -185 -30
-179 -1 -235 34 -287 182 -53 151 3 509 108 683 47 78 141 164 219 200 91 43
158 43 242 1 81 -41 128 -48 172 -25 51 26 76 66 75 117 -1 62 -30 102 -93
134 -49 23 -69 27 -175 29 -116 3 -125 2 -211 -30z"/>
<path d="M3444 2011 c-85 -17 -129 -44 -193 -116 -62 -71 -100 -178 -102 -290
-3 -141 97 -225 268 -225 60 0 83 5 125 26 90 46 228 193 214 229 -4 12 -22 2
-82 -49 -148 -127 -240 -147 -321 -73 -33 30 -28 48 24 82 141 89 243 228 243
330 0 57 -7 67 -61 88 -29 12 -45 12 -115 -2z m66 -124 c0 -56 -80 -153 -172
-210 l-28 -17 0 40 c0 51 17 84 67 131 45 43 115 89 126 82 4 -2 7 -14 7 -26z"/>
</g>
</svg>
